<svg width="15.988403" height="16.019680" viewBox="0 0 15.9884 16.0197" fill="none" xmlns="http://www.w3.org/2000/svg" xmlns:xlink="http://www.w3.org/1999/xlink">
	<desc>
			Created with Pixso.
	</desc>
	<defs/>
	<path id="Vector" d="M15.96 12.08L15.21 15.23C15.12 15.7 14.75 16.01 14.28 16.01C6.4 15.98 0 9.58 0 1.7C0 1.23 0.28 0.86 0.75 0.76L3.9 0.01C4.34 -0.08 4.81 0.17 5 0.58L6.46 3.98C6.62 4.39 6.53 4.86 6.18 5.11L4.5 6.48C5.56 8.64 7.31 10.39 9.5 11.45L10.87 9.76C11.12 9.45 11.59 9.33 12 9.48L15.4 10.95C15.81 11.17 16.06 11.64 15.96 12.08Z" fill="#000000" fill-opacity="1.000000" fill-rule="evenodd"/>
</svg>
